<svg xmlns="http://www.w3.org/2000/svg" xmlns:xlink="http://www.w3.org/1999/xlink" viewBox="0 0 950 1114.68"><defs><style>.cls-1{isolation:isolate;}.cls-12,.cls-2,.cls-21,.cls-24,.cls-28,.cls-3,.cls-31,.cls-34,.cls-37,.cls-40,.cls-45,.cls-50,.cls-51{mix-blend-mode:multiply;}.cls-2{fill:url(#radial-gradient);}.cls-3{fill:url(#radial-gradient-2);}.cls-4{fill:url(#radial-gradient-3);}.cls-5{fill:url(#radial-gradient-4);}.cls-6{fill:url(#radial-gradient-5);}.cls-7{fill:url(#radial-gradient-6);}.cls-8{fill:url(#radial-gradient-7);}.cls-9{fill:url(#radial-gradient-8);}.cls-10{fill:url(#radial-gradient-9);}.cls-11{fill:url(#radial-gradient-10);}.cls-12{fill:url(#radial-gradient-11);}.cls-13{fill:url(#radial-gradient-12);}.cls-14{fill:url(#radial-gradient-13);}.cls-15{fill:url(#radial-gradient-14);}.cls-16{fill:url(#radial-gradient-15);}.cls-17{fill:url(#radial-gradient-16);}.cls-18{fill:url(#radial-gradient-17);}.cls-19{fill:url(#radial-gradient-18);}.cls-20{fill:url(#radial-gradient-19);}.cls-21{fill:url(#radial-gradient-20);}.cls-22{fill:url(#radial-gradient-21);}.cls-23{fill:url(#radial-gradient-22);}.cls-24{fill:url(#radial-gradient-23);}.cls-25{fill:url(#radial-gradient-24);}.cls-26{fill:url(#radial-gradient-25);}.cls-27{fill:#fff;opacity:0.52;mix-blend-mode:soft-light;}.cls-28{fill:url(#radial-gradient-26);}.cls-29{fill:url(#radial-gradient-27);}.cls-30{fill:url(#radial-gradient-28);}.cls-31{fill:url(#radial-gradient-29);}.cls-32{fill:url(#radial-gradient-30);}.cls-33{fill:url(#radial-gradient-31);}.cls-34{fill:url(#radial-gradient-32);}.cls-35{fill:url(#radial-gradient-33);}.cls-36{fill:url(#radial-gradient-34);}.cls-37{fill:url(#radial-gradient-35);}.cls-38{fill:url(#radial-gradient-36);}.cls-39{fill:url(#radial-gradient-37);}.cls-40{fill:url(#radial-gradient-38);}.cls-41{fill:url(#radial-gradient-39);}.cls-42{fill:url(#radial-gradient-40);}.cls-43{fill:url(#radial-gradient-41);}.cls-44{fill:url(#radial-gradient-42);}.cls-45{fill:url(#radial-gradient-43);}.cls-46{fill:url(#radial-gradient-44);}.cls-47{fill:url(#radial-gradient-45);}.cls-48{fill:url(#radial-gradient-46);}.cls-49{fill:url(#radial-gradient-47);}.cls-50{fill:url(#radial-gradient-48);}.cls-51{fill:url(#radial-gradient-49);}.cls-52{fill:url(#radial-gradient-50);}.cls-53{fill:url(#radial-gradient-51);}</style><radialGradient id="radial-gradient" cx="2407.15" cy="2263.45" r="116.14" gradientTransform="matrix(0, 2.01, -1.11, 0, 3367.9, -4599.13)" gradientUnits="userSpaceOnUse"><stop offset="0" stop-color="#00a27c"/><stop offset="0.08" stop-color="#1ead8b"/><stop offset="0.28" stop-color="#61c5ae"/><stop offset="0.46" stop-color="#9adacb"/><stop offset="0.63" stop-color="#c5eae1"/><stop offset="0.78" stop-color="#e5f5f2"/><stop offset="0.91" stop-color="#f8fcfb"/><stop offset="1" stop-color="#fff"/></radialGradient><radialGradient id="radial-gradient-2" cx="2047.02" cy="-543.74" r="116.14" gradientTransform="matrix(2.01, 0, 0, 1.11, -3567.25, 1232.6)" xlink:href="#radial-gradient"/><radialGradient id="radial-gradient-3" cx="703.66" cy="1492.09" r="166.2" gradientTransform="matrix(0.1, 1.08, -1.31, 0.25, 2376.03, -574.31)" gradientUnits="userSpaceOnUse"><stop offset="0" stop-color="#081111"/><stop offset="0.18" stop-color="#06291c"/><stop offset="0.54" stop-color="#035231"/><stop offset="0.83" stop-color="#016c3d"/><stop offset="1" stop-color="#007642"/></radialGradient><radialGradient id="radial-gradient-4" cx="633.26" cy="1536.26" r="151.67" gradientTransform="matrix(0.1, 1.08, -1.31, 0.25, 2357.25, -491.18)" xlink:href="#radial-gradient-3"/><radialGradient id="radial-gradient-5" cx="5887.12" cy="-364.01" r="166.2" gradientTransform="matrix(-0.1, 1.08, 1.31, 0.25, 1958.04, -5608.54)" xlink:href="#radial-gradient-3"/><radialGradient id="radial-gradient-6" cx="5816.72" cy="-319.84" r="151.67" gradientTransform="matrix(-0.1, 1.08, 1.31, 0.25, 1976.82, -5525.41)" xlink:href="#radial-gradient-3"/><radialGradient id="radial-gradient-7" cx="5904.6" cy="-677.75" r="212" gradientTransform="matrix(-0.1, 1.08, 1.31, 0.25, 2221.06, -5864.66)" xlink:href="#radial-gradient-3"/><radialGradient id="radial-gradient-8" cx="5814.8" cy="-621.41" r="193.47" gradientTransform="matrix(-0.1, 1.08, 1.31, 0.25, 2245, -5758.63)" xlink:href="#radial-gradient-3"/><radialGradient id="radial-gradient-9" cx="6145.5" cy="934.14" r="166.2" gradientTransform="matrix(-0.57, 0.92, 1.06, 0.81, 3415.88, -5465.39)" xlink:href="#radial-gradient-3"/><radialGradient id="radial-gradient-10" cx="6075.1" cy="978.31" r="151.67" gradientTransform="matrix(-0.57, 0.92, 1.06, 0.81, 3395.33, -5382.69)" xlink:href="#radial-gradient-3"/><radialGradient id="radial-gradient-11" cx="2027.78" cy="-745.43" r="119.09" gradientTransform="matrix(2.01, 0, 0, 1.11, -3674.3, 1281.97)" xlink:href="#radial-gradient"/><radialGradient id="radial-gradient-12" cx="539.65" cy="1280.32" r="188.11" gradientTransform="matrix(0.15, 1.07, -1.3, 0.31, 2011.23, -614.51)" gradientUnits="userSpaceOnUse"><stop offset="0" stop-color="#022433"/><stop offset="0.18" stop-color="#022f38"/><stop offset="0.69" stop-color="#004844"/><stop offset="1" stop-color="#005248"/></radialGradient><radialGradient id="radial-gradient-13" cx="459.96" cy="1330.31" r="171.66" gradientTransform="matrix(0.15, 1.07, -1.3, 0.31, 1994.37, -519.54)" xlink:href="#radial-gradient-12"/><radialGradient id="radial-gradient-14" cx="774.4" cy="96.13" r="228.36" gradientTransform="matrix(0.68, 0.84, -0.95, 0.94, 239.64, -154.96)" xlink:href="#radial-gradient-12"/><radialGradient id="radial-gradient-15" cx="677.67" cy="156.82" r="208.39" gradientTransform="matrix(0.68, 0.84, -0.95, 0.94, 281.72, -45.7)" xlink:href="#radial-gradient-12"/><radialGradient id="radial-gradient-16" cx="5934.42" cy="-625.83" r="212.06" gradientTransform="matrix(-0.11, 1.07, 1.28, 0.29, 2239.66, -6034.86)" xlink:href="#radial-gradient-12"/><radialGradient id="radial-gradient-17" cx="5844.57" cy="-569.47" r="193.52" gradientTransform="matrix(-0.11, 1.07, 1.28, 0.29, 2261.57, -5928.46)" xlink:href="#radial-gradient-12"/><radialGradient id="radial-gradient-18" cx="6268.49" cy="-35.52" r="212.06" gradientTransform="matrix(-0.11, 1.07, 1.28, 0.29, 1461.5, -5835.85)" xlink:href="#radial-gradient-12"/><radialGradient id="radial-gradient-19" cx="6178.64" cy="20.84" r="193.52" gradientTransform="matrix(-0.11, 1.07, 1.28, 0.29, 1483.41, -5729.45)" xlink:href="#radial-gradient-12"/><radialGradient id="radial-gradient-20" cx="1804.6" cy="-152.03" r="86.48" gradientTransform="matrix(2.01, 0, 0, 1.11, -3341.91, 953.54)" xlink:href="#radial-gradient"/><radialGradient id="radial-gradient-21" cx="2160.93" cy="-2089.08" r="171.28" gradientTransform="matrix(0.51, 0.86, 1.12, -0.66, 1476.51, -2466.9)" gradientUnits="userSpaceOnUse"><stop offset="0" stop-color="#00a27c"/><stop offset="0.17" stop-color="#039877"/><stop offset="0.45" stop-color="#0b7e68"/><stop offset="0.81" stop-color="#195450"/><stop offset="1" stop-color="#213b42"/></radialGradient><radialGradient id="radial-gradient-22" cx="2044.63" cy="-2086.17" r="155.9" gradientTransform="matrix(0.51, 0.86, 0.86, -0.51, 941.33, -2149.18)" gradientUnits="userSpaceOnUse"><stop offset="0" stop-color="#00a27c"/><stop offset="0.17" stop-color="#039877"/><stop offset="0.45" stop-color="#0b7e68"/><stop offset="0.81" stop-color="#195550"/><stop offset="1" stop-color="#213b42"/></radialGradient><radialGradient id="radial-gradient-23" cx="4572.08" cy="1648.3" r="84.39" gradientTransform="matrix(-2.01, 0, 0, -1.11, 9801, 2423.95)" xlink:href="#radial-gradient"/><radialGradient id="radial-gradient-24" cx="1574.96" cy="-1876" r="207.35" gradientTransform="matrix(-0.65, -0.76, -0.99, 0.84, -170.36, 3395.83)" gradientUnits="userSpaceOnUse"><stop offset="0" stop-color="#007474"/><stop offset="0.68" stop-color="#0a353b"/><stop offset="1" stop-color="#0f161e"/></radialGradient><radialGradient id="radial-gradient-25" cx="5707.53" cy="-1919.01" r="237.07" gradientTransform="matrix(0.74, 0.18, -0.68, 0.98, -5008.4, 1374.03)" gradientUnits="userSpaceOnUse"><stop offset="0" stop-color="#007474"/><stop offset="0.18" stop-color="#026a6b"/><stop offset="0.48" stop-color="#065053"/><stop offset="0.86" stop-color="#0c262d"/><stop offset="1" stop-color="#0f161e"/></radialGradient><radialGradient id="radial-gradient-26" cx="2081.32" cy="-559.44" r="86.48" gradientTransform="matrix(2.09, 0, 0, 1.23, -3915.79, 1643.44)" xlink:href="#radial-gradient"/><radialGradient id="radial-gradient-27" cx="1401.59" cy="-1959.3" r="225.73" gradientTransform="matrix(-0.76, -0.64, -0.84, 0.99, -61, 3818.9)" xlink:href="#radial-gradient-24"/><radialGradient id="radial-gradient-28" cx="5992.11" cy="-2005.83" r="258.06" gradientTransform="matrix(0.76, 0.05, -0.51, 1.08, -5236.74, 2721.09)" xlink:href="#radial-gradient-25"/><radialGradient id="radial-gradient-29" cx="2410.47" cy="2075.29" r="86.67" gradientTransform="translate(-299.74 -4748.63) rotate(45) scale(2.01 1.56)" xlink:href="#radial-gradient"/><radialGradient id="radial-gradient-30" cx="5681.74" cy="1595.26" r="195.34" gradientTransform="translate(6731.51 -310.61) rotate(148.41) scale(1 1.3)" xlink:href="#radial-gradient-21"/><radialGradient id="radial-gradient-31" cx="5549.09" cy="1598.58" r="177.8" gradientTransform="matrix(-0.85, 0.52, -0.52, -0.85, 6482.57, -715.43)" xlink:href="#radial-gradient-22"/><radialGradient id="radial-gradient-32" cx="2547.63" cy="2549.68" r="108.68" gradientTransform="matrix(0, 2.01, -1.11, 0, 3620.48, -4460.79)" xlink:href="#radial-gradient"/><radialGradient id="radial-gradient-33" cx="5775.39" cy="1320.97" r="195.33" gradientTransform="matrix(-0.94, 0.34, -0.44, -1.22, 6809.98, 298.63)" gradientUnits="userSpaceOnUse"><stop offset="0" stop-color="#00a452"/><stop offset="0.18" stop-color="#029a51"/><stop offset="0.47" stop-color="#09804d"/><stop offset="0.85" stop-color="#135647"/><stop offset="1" stop-color="#184444"/></radialGradient><radialGradient id="radial-gradient-34" cx="5642.76" cy="1324.29" r="177.79" gradientTransform="translate(6676.21 -71.5) rotate(160.13)" gradientUnits="userSpaceOnUse"><stop offset="0" stop-color="#00a452"/><stop offset="0.18" stop-color="#029a51"/><stop offset="0.47" stop-color="#09804d"/><stop offset="0.85" stop-color="#135747"/><stop offset="1" stop-color="#184444"/></radialGradient><radialGradient id="radial-gradient-35" cx="4548.9" cy="1818.43" r="94.09" gradientTransform="matrix(-2.01, 0, 0, -1.11, 9731.22, 2419.72)" xlink:href="#radial-gradient"/><radialGradient id="radial-gradient-36" cx="1966.69" cy="-1609.25" r="208.26" gradientTransform="matrix(0.51, 0.86, 1.12, -0.66, 1353.59, -2393.93)" xlink:href="#radial-gradient-21"/><radialGradient id="radial-gradient-37" cx="1825.28" cy="-1605.71" r="189.56" xlink:href="#radial-gradient-22"/><radialGradient id="radial-gradient-38" cx="2509.16" cy="2376.34" r="116.14" gradientTransform="matrix(0, 2.01, -1.11, 0, 3527.07, -4566)" xlink:href="#radial-gradient"/><radialGradient id="radial-gradient-39" cx="4338.58" cy="2544.29" r="221.78" gradientTransform="translate(-4519.21 1664.6) rotate(-49.59) scale(1 1.3)" xlink:href="#radial-gradient-24"/><radialGradient id="radial-gradient-40" cx="1508.83" cy="2497.96" r="253.57" gradientTransform="matrix(-0.74, 0.18, 0.68, 0.98, 360.06, -2322.57)" xlink:href="#radial-gradient-25"/><radialGradient id="radial-gradient-41" cx="4791.73" cy="2278.17" r="169.68" gradientTransform="matrix(0.84, -0.55, 0.71, 1.08, -4944.75, 422.76)" gradientUnits="userSpaceOnUse"><stop offset="0" stop-color="#009749"/><stop offset="0.5" stop-color="#075834"/><stop offset="1" stop-color="#0f161e"/></radialGradient><radialGradient id="radial-gradient-42" cx="760.37" cy="2242.64" r="193.99" gradientTransform="matrix(-0.76, -0.04, 0.38, 1.13, 532.71, -2299.94)" gradientUnits="userSpaceOnUse"><stop offset="0" stop-color="#009749"/><stop offset="0.14" stop-color="#018d46"/><stop offset="0.38" stop-color="#04733d"/><stop offset="0.68" stop-color="#09492f"/><stop offset="1" stop-color="#0f161e"/></radialGradient><radialGradient id="radial-gradient-43" cx="2568.84" cy="-1491.69" r="86.47" gradientTransform="matrix(2.01, 0, 0, 1.11, -4659.4, 2493)" xlink:href="#radial-gradient"/><radialGradient id="radial-gradient-44" cx="1498.82" cy="-1993.23" r="169.68" gradientTransform="matrix(-0.71, -0.7, -0.91, 0.93, -119.88, 3744.2)" xlink:href="#radial-gradient-41"/><radialGradient id="radial-gradient-45" cx="5781.85" cy="-2028.57" r="193.98" gradientTransform="matrix(0.76, 0.11, -0.59, 1.04, -5054.27, 2223)" xlink:href="#radial-gradient-42"/><radialGradient id="radial-gradient-46" cx="760.24" cy="1187.5" r="171.61" gradientTransform="translate(59.31 -627.6) rotate(4.99) scale(1 1.3)" xlink:href="#radial-gradient-33"/><radialGradient id="radial-gradient-47" cx="665.09" cy="1166.99" r="172.44" gradientTransform="matrix(1, 0.09, -0.09, 1, 28.53, -275.16)" xlink:href="#radial-gradient-34"/><radialGradient id="radial-gradient-48" cx="4649.25" cy="1311.47" r="67.02" gradientTransform="matrix(-2.01, 0, 0, -1.11, 9943.2, 2454.44)" xlink:href="#radial-gradient"/><radialGradient id="radial-gradient-49" cx="4647.66" cy="1447.94" r="67.02" gradientTransform="matrix(-2.01, 0, 0, -1.11, 9889.42, 2463.1)" xlink:href="#radial-gradient"/><radialGradient id="radial-gradient-50" cx="2510.08" cy="-2475.12" r="156.85" gradientTransform="matrix(-0.42, -0.91, -1.18, 0.55, -1232.83, 4651.92)" xlink:href="#radial-gradient-41"/><radialGradient id="radial-gradient-51" cx="4226.37" cy="-2508.29" r="179.31" gradientTransform="matrix(0.67, 0.37, -0.92, 0.76, -4574.08, 1269.89)" xlink:href="#radial-gradient-42"/></defs><title>fullLeaf</title><g class="cls-1"><g id="Layer_1" data-name="Layer 1"><ellipse class="cls-2" cx="849.2" cy="228.74" rx="129.24" ry="232.93" transform="translate(-62.54 562.38) rotate(-39.58)"/><ellipse class="cls-3" cx="538.25" cy="627.54" rx="232.93" ry="129.24" transform="translate(-353.17 322.01) rotate(-30)"/><path class="cls-4" d="M539.74,572.19c15,29.59,25.53,57.73,24.16,103.64,12.82-56.43-3.66-106.17-40.17-134.05-54,17.8-124,83.76-155.38,174.44,26.56-52.61,87.29-119.17,127.79-154-41.45,39.3-81.37,114.11-91.33,180.48,18.82-51.21,58.9-120.31,90.09-164.66C467.35,626,443.61,703.4,430.82,755.92c30-60.61,60-135.45,80-183.72-18.14,50.49-28.69,116-42,177,25.1-59.86,44.78-123.21,52-169.49-4,50.39-9.23,103.33-22.86,162.17,25.6-61,36.65-113.7,32.82-160.71,6.62,37.11,11.26,72.78,3.19,131.55Q559.61,627.38,539.74,572.19Z" transform="translate(-111.51 -31.19)"/><path class="cls-5" d="M523.83,541.55l-1-.13c-44.22-18.88-76.21-22-141.53-4,34.88-6.56,63.4-5.05,89.72-2-35.54-1.28-75.71,4-117.11,24.81,35.54-9.21,72.93-14.18,106.11-16.61-49.39,7.37-106.47,26.21-132,54.26,25.78-18.17,74.36-33.07,118.05-43-43.51,14.94-90.54,42.25-130.31,80.76C355.89,606.39,420.7,576.22,470,558c-48.87,22.71-103.1,67.16-140.06,125.43,48.57-57.79,157.92-131.1,193.79-141.65l-.43-.18Z" transform="translate(-111.51 -31.19)"/><path class="cls-6" d="M831.88,673.17c-15,29.59-25.53,57.73-24.16,103.64-12.81-56.43,3.67-106.17,40.17-134,54,17.8,124,83.76,155.39,174.44C976.71,764.59,916,698,875.49,663.25c41.45,39.3,81.37,114.11,91.32,180.48C948,792.52,907.92,723.42,876.73,679.07,904.28,727,928,804.38,940.81,856.9c-30-60.61-60-135.45-80-183.72,18.14,50.49,28.69,116,42.05,177-25.11-59.86-44.79-123.21-52-169.49,4,50.39,9.23,103.33,22.85,162.17-25.6-61-36.64-113.7-32.81-160.71-6.63,37.11-11.27,72.78-3.2,131.55Q812,728.35,831.88,673.17Z" transform="translate(-111.51 -31.19)"/><path class="cls-7" d="M847.79,642.53l1-.13c44.21-18.88,76.2-22,141.52-4-34.87-6.56-63.39-5.05-89.72-2,35.54-1.28,75.72,4,117.12,24.81-35.55-9.21-72.94-14.18-106.12-16.61,49.39,7.37,106.48,26.21,132,54.26-25.78-18.17-74.37-33.07-118.06-43C969,670.8,1016,698.11,1055.8,736.62,1015.73,707.37,950.93,677.2,901.62,659c48.87,22.71,103.1,67.16,140.06,125.43-48.57-57.79-157.91-131.1-193.79-141.65l.43-.18Z" transform="translate(-111.51 -31.19)"/><path class="cls-8" d="M666,362.72c-19.12,37.74-32.57,73.63-30.82,132.18-16.34-72,4.68-135.42,51.24-171,68.86,22.71,158.2,106.84,198.2,222.51-33.88-67.1-111.35-152-163-196.37,52.87,50.13,103.8,145.55,116.49,230.22-24-65.33-75.13-153.48-114.91-210,35.14,61.13,65.42,159.84,81.74,226.84-38.24-77.31-76.53-172.78-102.06-234.35,23.13,64.41,36.59,148,53.63,225.76-32-76.35-57.13-157.16-66.36-216.19,5.11,64.28,11.78,131.8,29.15,206.86-32.65-77.85-46.73-145-41.85-205C669,421.49,663.07,467,673.36,542Q640.65,433.11,666,362.72Z" transform="translate(-111.51 -31.19)"/><path class="cls-9" d="M686.29,323.63l1.21-.17c56.4-24.08,97.2-28,180.53-5-44.49-8.37-80.87-6.44-114.45-2.57,45.33-1.62,96.58,5.13,149.39,31.65-45.34-11.74-93-18.09-135.36-21.18,63,9.4,135.82,33.43,168.36,69.2-32.89-23.17-94.86-42.17-150.59-54.88,55.5,19.06,115.5,53.9,166.23,103-51.11-37.31-133.77-75.78-196.66-99,62.33,29,131.5,85.67,178.65,160-62-73.71-201.43-167.22-247.19-180.68l.55-.23Z" transform="translate(-111.51 -31.19)"/><path class="cls-10" d="M820.38,932.8c-26.69,19.7-48.74,40.11-68.13,81.74,13.89-56.17,51-93.21,96.09-101.73,40.24,40.15,73.2,130.53,60.5,225.64-.11-58.93-24.48-145.68-45.05-194.94,19.39,53.73,21.47,138.5.56,202.27,6.18-54.21,1.4-133.95-6.55-187.58,3.1,55.19-10.45,135-22.6,187.67.43-67.61,7.22-148,11-200.09-6.47,53.27-26.47,116.55-41.91,177C808.74,1058,819.61,992.61,833.92,948c-19,46.82-38.15,96.47-52.4,155.16,4.53-66,18.32-118.05,42.85-158.33-22.58,30.18-42.75,60-61.93,116.1Q777.85,973.19,820.38,932.8Z" transform="translate(-111.51 -31.19)"/><path class="cls-11" d="M848.35,912.56l.91.31c48,3,78,14.59,128.24,60-28.22-21.52-54.38-33-79.27-42.08,32.33,14.82,65.85,37.59,93.51,74.76-27.63-24.19-58.8-45.42-87.36-62.49,40.82,28.76,83.37,71.23,93.57,107.74-14.88-27.81-51.6-62.93-86.16-91.45C944,992.24,973.71,1037.77,992,1090c-22.67-44.12-67-100.18-102.9-138.6,33.47,42.24,62,106.31,68.82,175-17.45-73.44-82.23-188-109.54-213.58l.47,0Z" transform="translate(-111.51 -31.19)"/><ellipse class="cls-12" cx="392.6" cy="452.46" rx="238.85" ry="132.52" transform="matrix(0.87, -0.5, 0.5, 0.87, -285.14, 225.73)"/><path class="cls-13" d="M488.13,376.51c18.51,32.66,31.9,63.92,32.77,115.89,11.52-64.47-9.73-119.84-52.47-149.43-60.1,23-135.82,101.22-166.5,205.4C329.19,487.49,394.36,409,438.31,367.59c-44.8,46.61-86,133.29-93.76,208.86,18.59-58.9,60.26-139.14,93.19-190.92C409.11,441.16,386.35,529.91,374.65,590c30.7-70.1,60.7-156.3,80.79-211.93-17.85,58.05-26.33,132.69-38.22,202.32,25.24-69,44.15-141.65,49.9-194.36-1.87,57.18-5,117.31-17.3,184.56,25.72-70.35,35.44-130.48,28.63-183.44C487.9,428.72,495,468.81,489,535.68Q513.5,437.85,488.13,376.51Z" transform="translate(-111.51 -31.19)"/><path class="cls-14" d="M468.52,342.7l-1.08-.1c-51-19-87.31-20.83-160.22,3,39.09-9.25,71.41-9.05,101.34-7-40.25.43-85.4,8.53-131.11,34.21,39.71-12.27,81.71-19.87,119.1-24.36-55.45,10.93-119,35.24-146.37,68.29,28.2-21.9,82.34-41.3,131.21-54.86C333,381,281.25,414.4,238.31,460c43.76-35.17,115.44-72.69,170.22-95.89-54,28.25-113,81.36-151.74,149.18C308.66,445.42,428.42,356.78,468.43,343l-.5-.19Z" transform="translate(-111.51 -31.19)"/><path class="cls-15" d="M751.91,564.46c39.73,22.32,73.27,46.39,106.78,99.86C830.2,590.1,773.37,545.9,710.39,542c-48,61.58-77.6,190.41-44.1,317.91-9.88-80.37,8.6-202.77,28.25-273.43-17.29,76.55-5.71,192.47,33.65,275.86-17.65-72.86-24.7-182.38-23-256.85,5.17,75.76,37.21,182.26,62.74,252-12.09-92.11-35-200.5-49.05-270.92,17.89,71.52,55.91,154.4,87.25,234.21-17.07-87.53-43-174.89-70.12-233.26,33.94,60.59,68.42,125,97.84,202.62-17.42-89.24-45.06-157.82-85.35-208.57C784.44,618.86,817,656,852.69,729.31Q816.78,612.28,751.91,564.46Z" transform="translate(-111.51 -31.19)"/><path class="cls-16" d="M710.33,541.63l-1.19.58c-64.91,12.23-103.8,33.14-164.62,103.63,34.81-34.14,68.53-54.22,100.91-70.86-41.55,25.7-83.38,62.45-114.77,117.82,33.56-37.67,72.45-71.92,108.48-100C588.37,638.91,537.6,704,529.9,755.56c15.55-40.45,59.64-94.58,101.91-139.34C593.55,666.53,560.72,733.65,544.74,808c23.39-64,74.33-148,116.7-206.46C623,664.82,595.05,757,597.38,851.78c11.29-103.09,80.11-270.35,113-309.81l-.63.12Z" transform="translate(-111.51 -31.19)"/><path class="cls-17" d="M705.63,156.44c-19.13,36.92-32.7,72.19-31.78,130.55-15-72.23,6.37-134.67,52.18-168.46,66.75,25,152.62,111.86,190,228.41C884,279,809.66,191.74,760,145.77,810.77,197.52,859.08,294.29,870.3,379c-22.5-65.88-71.09-155.41-109.07-213.12,33.4,62.08,61.56,161.42,76.55,228.69-36.19-78.3-72.2-174.68-96.24-236.87,21.66,64.93,33.65,148.62,49.2,226.64C760.58,307.24,737.22,225.91,729,166.82c4.11,64.17,9.7,131.64,25.61,207-30.75-78.64-43.56-146-38-205.56-8.86,46.83-15.23,91.93-6.21,166.93Q680,225.66,705.63,156.44Z" transform="translate(-111.51 -31.19)"/><path class="cls-18" d="M725.92,118.23l1.18-.12c55.24-22,95-24.54,175.85,1.22-43.2-9.87-78.65-9.22-111.4-6.52,44.16,0,94,8.45,145,36.69-44-13.26-90.35-21.23-131.52-25.78,61.22,11.54,131.8,38,163,74.74-31.72-24.22-91.8-45.28-145.9-59.87,53.79,20.9,111.74,57.67,160.48,108.33C933.4,208,853.42,166.83,792.5,141.5c60.3,31,126.9,89.86,171.81,165.49C905,231.45,770.41,133.51,726,118.53l.54-.22Z" transform="translate(-111.51 -31.19)"/><path class="cls-19" d="M643.14,885.87c-19.13,36.92-32.7,72.19-31.78,130.55-15-72.23,6.36-134.67,52.18-168.46,66.74,25,152.61,111.86,190,228.41-32.09-68-106.39-155.2-156.09-201.17,50.81,51.75,99.12,148.52,110.35,233.26-22.5-65.88-71.1-155.41-109.08-213.12,33.4,62.08,61.56,161.42,76.55,228.69-36.19-78.3-72.2-174.68-96.24-236.87,21.67,64.93,33.65,148.62,49.2,226.64-30.16-77.13-53.52-158.46-61.71-217.55,4.1,64.17,9.7,131.64,25.61,207-30.75-78.64-43.57-146-38-205.56-8.86,46.83-15.24,91.93-6.22,166.93Q617.51,955.09,643.14,885.87Z" transform="translate(-111.51 -31.19)"/><path class="cls-20" d="M663.42,847.66l1.19-.12c55.23-22,95-24.54,175.85,1.22-43.21-9.87-78.66-9.22-111.41-6.52,44.16,0,94,8.45,145,36.69-44-13.26-90.35-21.23-131.51-25.78,61.22,11.54,131.79,38,163,74.74-31.71-24.22-91.8-45.28-145.89-59.87,53.78,20.9,111.73,57.67,160.47,108.33C870.9,937.44,790.92,896.26,730,870.93c60.31,31,126.9,89.86,171.81,165.49C842.47,960.88,707.91,862.94,663.54,848l.54-.22Z" transform="translate(-111.51 -31.19)"/><ellipse class="cls-21" cx="277.34" cy="784.41" rx="173.44" ry="96.23" transform="translate(-370.43 117.11) rotate(-20.66)"/><path class="cls-22" d="M353.31,788.09a4.32,4.32,0,0,0,.47-6.5c-5.82-5.79-13.79-11.71-23.87-18-34.9-21.57-8.08-44,11.46-30,13.41,9.64,22.26,20.57,27.94,31.56a4.3,4.3,0,0,0,7.18.67,77.83,77.83,0,0,0,10.33-17c5.68-13.14,6.74-24.51,5.05-34.23-1.92-11.12-9.29-24.19-24.18-36.15a64.44,64.44,0,0,0-17.52-10.14c-118.55,44.45-181.74,132-181.74,132,11.06,12.94,26.71,20.69,44.66,24.23a4.33,4.33,0,0,0,4.4-6.74,34.48,34.48,0,0,0-6.76-6.92c-18-14.15-1.26-25.14,7.66-20.29,9.75,5.3,13.13,22.66,13.57,27.5.15,1.6.23,3.12.26,4.56a4.3,4.3,0,0,0,4.28,4.19,181.67,181.67,0,0,0,45.39-5.68,4.33,4.33,0,0,0,2.72-6.33c-3.44-6.16-9.44-12.34-18.5-18.13-27.86-17.81-5.2-34,7-27.32,14.11,7.76,21.88,29.52,25.07,42a4.31,4.31,0,0,0,5.68,3A195.41,195.41,0,0,0,353.31,788.09ZM236.59,763.94c4.63,7.79-8.37,13.32-13,5.6S232,756.22,236.59,763.94Zm-.4-15c4.25-2,6.42,5,2.21,7S232,750.88,236.19,748.92Zm98.4-36.85a22.68,22.68,0,0,1-15.14-.51c-6.18-2.63-3.92-9.22.84-12a17.21,17.21,0,0,1,6.62-2,14.43,14.43,0,0,1,8.59,1.24c3.75,2,5.76,7.12,2.88,10.71A8.58,8.58,0,0,1,334.59,712.07Zm17.66-4.45c.23-1.88,1.4-3.33,4.26-3.34a6.47,6.47,0,0,1,4.89,2.53,9.14,9.14,0,0,1,2.16,5.93,4.88,4.88,0,0,1-3,4.1,5.56,5.56,0,0,1-6.49-2.45A12,12,0,0,1,352.25,707.62Zm-67.85,46c-8-1.49-18.38-8.76-18.22-17.88.06-3.57,2.35-6,5.83-7,6.05-1.73,18.93,1.15,23.28,11.06C299,748.17,292,755,284.4,753.59Z" transform="translate(-111.51 -31.19)"/><path class="cls-23" d="M349.39,669.12A58.53,58.53,0,0,0,347.1,649c-8.91-30.71-22.08-35.69-23.48-36.62-8.23-5.44-19.08-9-33.39-9A77.9,77.9,0,0,0,270.48,606a4.3,4.3,0,0,0-2.25,6.85C276,622.46,282.52,635,286,651.09c5.07,23.52-26.23,39.14-32.07-1.47-1.69-11.73-3.93-21.41-6.92-29.06a4.31,4.31,0,0,0-6.14-2.16A195.44,195.44,0,0,0,197,653.19a4.32,4.32,0,0,0,.46,6.4c10.19,7.92,27,23.74,28.52,39.78,1.28,13.89-22.66,28.17-27.85-4.48-1.69-10.62-5-18.59-9.23-24.2a4.33,4.33,0,0,0-6.89,0A181.66,181.66,0,0,0,158.66,710a4.3,4.3,0,0,0,2.13,5.6c1.31.6,2.66,1.28,4.07,2.06,4.27,2.34,18.83,12.37,19.79,23.42.89,10.12-15.87,21.06-21.65-1.08a34.25,34.25,0,0,0-3.65-9,4.34,4.34,0,0,0-7.93,1.34c-5.2,19.25,2.53,52.71,17,68C168.43,800.33,238.67,718.49,349.39,669.12Zm-102,24.08a9.09,9.09,0,0,1-10.33-5.91,32.57,32.57,0,0,1-1.74-9.16c0-4.68,2.31-8.53,6.35-9.56,4.78-1.23,9,2.11,11.28,6.76C259.1,687.58,251.57,692.37,247.39,693.2Zm72.23-35c-6.58,1.3-14.88-5.52-14-18,.32-4.59,4.51-9.69,10.94-8.29C321.28,633,340.16,654.16,319.62,658.21Zm-70.06,49.47c4.29,7.22-7.16,13.49-11.46,6.26S245.27,700.45,249.56,707.68ZM300.1,679.5c-6-4.07.58-13.42,6.72-11,4.55,1.82,3.4,7,.4,9.87C305.28,680.28,302.55,681.15,300.1,679.5ZM209.58,743c-3.21,6.38-12.63,3.26-15.26-2-1.08-2.16-2.49-4.78-2.38-7.29a7.16,7.16,0,0,1,5.09-6.3c7.9-2,16.14,7.82,12.67,15.29Z" transform="translate(-111.51 -31.19)"/><ellipse class="cls-24" cx="631.39" cy="589.69" rx="169.24" ry="93.9" transform="translate(-278.96 229.51) rotate(-20.66)"/><path class="cls-25" d="M502.92,627.54c27.83-13.39,68.26-25.3,106.46-32.47,83.31-15.64,137.2-74,123-128.78C723,429.84,696.49,408.67,660,407.58,569.68,455.92,514.7,581.16,502.92,627.54Z" transform="translate(-111.51 -31.19)"/><path class="cls-26" d="M502.92,627.54c3-41.87-5.06-52.68-9.66-111.38-5.46-69.67,34.63-149.23,95.67-156.72,32.77-4,64.79,18.09,71.09,48.14C576.39,479.77,526.79,573.36,502.92,627.54Z" transform="translate(-111.51 -31.19)"/><path class="cls-27" d="M585.4,453.83c-5.43.53-10.86.63-16.25.67s-10.74-.13-16,0A84,84,0,0,0,537.46,456a44.06,44.06,0,0,0-14.46,5.7,51,51,0,0,0-11.77,10.66,43.44,43.44,0,0,1,10.62-12.3,42.46,42.46,0,0,1,14.86-7.15c10.76-2.9,21.79-2.43,32.44-2.52s21.29-.29,31.54-2.7a77.51,77.51,0,0,0,23.49-9.87q5.18-4.86,10.45-9.61,7.1-6.14,14.31-12.09a15.89,15.89,0,0,1-4.25,1.27,35,35,0,0,1-8.05.25,124.89,124.89,0,0,1-15.75-2.39c-10.36-2.11-20.54-4.62-30.82-6.21a126.06,126.06,0,0,0-15.45-1.61,82.4,82.4,0,0,0-15.39.7A54.42,54.42,0,0,0,531.39,421a46.43,46.43,0,0,1,12.18-10.23A51,51,0,0,1,558.66,405c10.62-2.21,21.53-1.59,32,0a313.21,313.21,0,0,1,30.91,7.15c5.08,1.31,10.13,2.67,15.26,3.5a36.27,36.27,0,0,0,7.7.61,14.81,14.81,0,0,0,5.64-1.19c3.25-2.66,6.51-5.3,9.82-7.87l-9.37,8.62a17.61,17.61,0,0,0-.56,7.83,42.07,42.07,0,0,0,2.12,8.6c1.87,5.64,4.29,11.11,6.68,16.61,4.88,11,9.79,22,13.62,33.55s6.39,23.67,6.12,36a63.39,63.39,0,0,1-2.94,18.09,60.8,60.8,0,0,1-8.12,16.23,68.89,68.89,0,0,0,7.87-34.33,100.93,100.93,0,0,0-2.15-17.54,145.61,145.61,0,0,0-4.66-17.16C665,472.4,660.27,461.37,656,450.1a145.27,145.27,0,0,1-5.66-17.27,43.12,43.12,0,0,1-1.28-9.07,22,22,0,0,1,.75-7.09c-4.85,4.47-9.08,8.42-13.8,13-2.63,2.64-5.3,5.25-7.94,7.89a104.68,104.68,0,0,0-5.26,12.31,101.49,101.49,0,0,0-4.73,18.36c-2,12.49-1,25.16.93,37.75.9,6.32,2,12.66,2.68,19.14a65.71,65.71,0,0,1-.6,19.68,43.1,43.1,0,0,1-8.11,17.9,66.26,66.26,0,0,1-14.06,13.33,74.66,74.66,0,0,0,12.41-14.47,43.48,43.48,0,0,0,6.63-17.33,68.05,68.05,0,0,0-.11-18.69c-.75-6.28-1.89-12.58-2.87-19a156.45,156.45,0,0,1-1.79-19.4,90,90,0,0,1,1.76-19.51c1.3-6.41,5.24-18.95,9.45-26.38l-5.7,5.9c-1.87,2-3.69,4-5.55,6Q598.32,469.52,585,487a74.59,74.59,0,0,0-4,19.47c-.75,9.48-.65,19.12-1.48,28.85a116,116,0,0,1-2.19,14.52,79.21,79.21,0,0,1-4.54,14,72.73,72.73,0,0,1-7.16,12.82,80.87,80.87,0,0,1-9.49,11,130.08,130.08,0,0,0,7.79-12.1,89.08,89.08,0,0,0,5.9-12.94A107.19,107.19,0,0,0,575.42,535c.9-9.48,1-19.17,2.39-28.86a67,67,0,0,1,3.6-14.36q-4.68,6.3-9.16,12.72c-12.57,17.89-24,36.56-34.93,55.54l-8.05,14.33-7.72,14.51-3.9,7.24-3.71,7.35q-3.69,7.35-7.5,14.65c8.58-20.2,17.57-40.29,28.09-59.62a563.86,563.86,0,0,1,34.38-56.34c2.06-2.94,4.17-5.85,6.3-8.74a65.84,65.84,0,0,1-12.63,8c-7.37,3.71-15.05,6.4-22,10.21a61.43,61.43,0,0,0-18.15,14.86c-5.12,6.11-9.15,13.11-13.31,20.14A82.64,82.64,0,0,1,520,524.48c1.25-1.66,2.6-3.26,3.94-4.87s3-3,4.45-4.44,3.31-2.59,5-3.89c1.77-1.11,3.53-2.27,5.35-3.29,7.39-4,15.19-6.49,22.6-9.51A89.48,89.48,0,0,0,578,489.66a411.77,411.77,0,0,1,32.82-38.57c2.75-2.91,5.59-5.74,8.46-8.53a64.13,64.13,0,0,1-17.76,8.22A85.91,85.91,0,0,1,585.4,453.83Z" transform="translate(-111.51 -31.19)"/><ellipse class="cls-28" cx="431.36" cy="955.08" rx="180.62" ry="106.4" transform="translate(-621.18 462.68) rotate(-39.58)"/><path class="cls-29" d="M335.75,1009.81c27.49-19.36,68.77-39.4,108.49-53.94,86.66-31.71,134.07-104,109.06-160.32-16.64-37.45-48.91-55.43-88.27-50.07C376.69,813.57,340.1,957.9,335.75,1009.81Z" transform="translate(-111.51 -31.19)"/><path class="cls-30" d="M335.75,1009.81c-4.25-45.5-14.87-55.65-30.32-117.86-18.35-73.83,10.44-166.44,74.65-185.42,34.46-10.18,72.8,7.82,84.95,39C388.17,838,351.67,947.35,335.75,1009.81Z" transform="translate(-111.51 -31.19)"/><path class="cls-27" d="M393.2,808.52c-5.74,1.54-11.55,2.62-17.33,3.62s-11.56,1.79-17.23,2.86a91.19,91.19,0,0,0-16.53,4.47,47.91,47.91,0,0,0-14.5,8.71,54.92,54.92,0,0,0-10.72,13.55,47,47,0,0,1,9.19-15.11,46.21,46.21,0,0,1,14.68-10.34c11-5,23-6.51,34.38-8.52,11.47-1.84,22.8-4.12,33.38-8.55A84.52,84.52,0,0,0,432,784.41q4.69-6.15,9.5-12.19,6.52-7.86,13.2-15.55a17.68,17.68,0,0,1-4.34,2.13,37.81,37.81,0,0,1-8.59,1.71,134.12,134.12,0,0,1-17.35.25c-11.49-.4-22.88-1.28-34.21-1.15a137.43,137.43,0,0,0-16.87,1,88.87,88.87,0,0,0-16.4,3.51,59.23,59.23,0,0,0-27.6,18.72,50.34,50.34,0,0,1,11.25-13.17,55.52,55.52,0,0,1,15.18-8.82c11-4.26,22.84-5.56,34.4-5.73s23.1,1,34.47,2.15c5.69.5,11.36,1,17,1a39,39,0,0,0,8.38-.72,16,16,0,0,0,5.85-2.3c3-3.43,6-6.85,9.13-10.21q-4.26,5.49-8.52,10.94a19.15,19.15,0,0,0,.81,8.51,45,45,0,0,0,3.82,8.86c3,5.72,6.59,11.16,10.15,16.63,7.19,10.89,14.45,21.89,20.62,33.59s11.11,24.27,13,37.53a68.75,68.75,0,0,1,.08,20,65.8,65.8,0,0,1-5.8,18.88,75.06,75.06,0,0,0,2.3-38.26A109.39,109.39,0,0,0,496,843.29a156.66,156.66,0,0,0-8.07-17.59c-6-11.51-13-22.5-19.63-33.83a158.44,158.44,0,0,1-9.17-17.53,46.32,46.32,0,0,1-3-9.51,23.81,23.81,0,0,1-.46-7.75c-4.41,5.67-8.25,10.67-12.48,16.46-2.36,3.31-4.76,6.59-7.12,9.9a114.55,114.55,0,0,0-3.45,14.16,112.14,112.14,0,0,0-1.79,20.56c.09,13.77,3.39,27.21,7.77,40.36,2.1,6.63,4.44,13.24,6.31,20.08a71.7,71.7,0,0,1,2.88,21.23,46.91,46.91,0,0,1-5.51,20.68,72,72,0,0,1-12.7,16.83c4.2-5.59,8.13-11.4,10.73-17.76a47.34,47.34,0,0,0,4-19.79,73.69,73.69,0,0,0-3.46-20c-1.94-6.61-4.29-13.18-6.48-19.85A167,167,0,0,1,429,839.38a97.14,97.14,0,0,1-1.61-21.26c.24-7.11,2.23-21.29,5.42-30l-5.06,7.36c-1.66,2.47-3.25,5-4.88,7.48q-13,20.1-24.15,41.28a80.82,80.82,0,0,0-.84,21.63c.88,10.32,2.72,20.65,3.57,31.24a127.23,127.23,0,0,1,.26,16A86.75,86.75,0,0,1,399.33,929,79.44,79.44,0,0,1,393.94,944a87.8,87.8,0,0,1-8.22,13.55,141.87,141.87,0,0,0,6.21-14.39,96.79,96.79,0,0,0,4-14.95A116.54,116.54,0,0,0,397,897.44c-.74-10.35-2.4-20.76-2.6-31.42A72.93,72.93,0,0,1,395.71,850q-3.9,7.59-7.56,15.3c-10.29,21.46-19.25,43.55-27.56,65.89L354.52,948l-5.69,17-2.89,8.48L343.27,982q-2.64,8.55-5.43,17.08c5.59-23.23,11.65-46.42,19.48-69a612.67,612.67,0,0,1,26.82-66.66c1.69-3.53,3.44-7,5.21-10.51a72.09,72.09,0,0,1-12.14,10.81c-7.25,5.3-15,9.57-21.75,14.89a66.71,66.71,0,0,0-16.82,19.22c-4.41,7.47-7.48,15.7-10.7,24,1.43-8.75,3.62-17.51,7.65-25.65,1-2,2.2-4,3.35-5.93s2.66-3.71,4-5.57,3.09-3.37,4.63-5.06c1.7-1.51,3.38-3.08,5.15-4.5,7.23-5.58,15.14-9.69,22.56-14.26a97.8,97.8,0,0,0,16.39-12.47A447.56,447.56,0,0,1,420,801c2.43-3.62,5-7.16,7.55-10.68a70,70,0,0,1-17.59,12A94.79,94.79,0,0,1,393.2,808.52Z" transform="translate(-111.51 -31.19)"/><path class="cls-31" d="M945.51,1088.4c-50.74,54.84-150.56,40.74-218.29-27S647.4,896,700.23,843.12s142.84-32,218.29,27C989.11,925.33,999.63,1029.9,945.51,1088.4Z" transform="translate(-111.51 -31.19)"/><path class="cls-32" d="M730.29,911.54a4.93,4.93,0,0,0,7.31,0c9.86-10.95,29.25-28.8,47.62-29.15,15.9-.31,30.16,28.1-7.41,31.31-12.22,1-21.55,4.1-28.29,8.49a4.94,4.94,0,0,0-.61,7.83,207,207,0,0,0,42.81,29.81,4.92,4.92,0,0,0,6.55-2q1.18-2.16,2.68-4.47c3-4.65,15.63-20.38,28.27-20.57,11.59-.17,22.65,19.8-3,24.55a39.25,39.25,0,0,0-10.5,3.4,4.93,4.93,0,0,0,.87,9.14c20,5.94,39.91,6.42,57.94-.78,0,0-17.38-121.9-113.5-229.64a73.75,73.75,0,0,0-23.06.94c-21.38,4.19-35.75,13.47-43.59,23.68-6.86,8.92-11.82,21-13,37.23a88.93,88.93,0,0,0,1.4,22.68,4.9,4.9,0,0,0,7.6,3.13c11.56-8.09,26.3-14.42,44.95-17,27.17-3.82,42.34,33.08-4.33,36.36-13.48.95-24.67,2.69-33.62,5.46a4.92,4.92,0,0,0-3,6.8C703,877,715.49,895.18,730.29,911.54Zm104.81-2.76c-8.71,5.36-18.91-7.11-10.1-12.52S843.91,903.37,835.1,908.78Zm-7.66-21.61c-3.21-4.21,2.68-10.11,5.93-5.86S830.69,891.42,827.44,887.17ZM751.11,787.3c-1-5.16,3.72-9.21,8.59-9.29a16.4,16.4,0,0,1,9.32,3.31,19.46,19.46,0,0,1,5.61,5.57c3.34,5.32,2.12,13.17-5.51,12.55-5.32-.43-12-3.52-15.56-7.52A9.82,9.82,0,0,1,751.11,787.3ZM732.69,784a6.35,6.35,0,0,1-7.85-1,5.59,5.59,0,0,1-.88-5.76,10.46,10.46,0,0,1,5.32-4.83,7.4,7.4,0,0,1,6.29,0c2.87,1.53,3.28,3.61,2.52,5.64C737.2,780.42,734.72,782.7,732.69,784Zm45.88,56.73c9.65-7.7,24.18-3.76,29.37,1.19,3,2.85,4,6.57,2.16,10.2-4.68,9.29-19,11.15-27.88,8.39C773.76,857.83,770.35,847.25,778.57,840.68Z" transform="translate(-111.51 -31.19)"/><path class="cls-33" d="M874.52,969.15c22.7-7.72,48.26-37.4,53.22-59.6,1-4.37-3.48-7.89-7.3-5.56a39.35,39.35,0,0,0-8.44,7.12c-17.58,19.29-28.7-.65-22.44-10.4,6.84-10.64,26.86-13.05,32.4-13.15,1.84,0,3.57,0,5.21.08a4.91,4.91,0,0,0,5.12-4.52,207.17,207.17,0,0,0-2.7-52.1,5,5,0,0,0-7-3.61c-7.29,3.4-14.81,9.71-22.15,19.54-22.56,30.21-39.15,3.1-30.5-10.25,10-15.41,35.4-22.44,49.9-25a4.91,4.91,0,0,0,3.85-6.21c-6.08-21.21-14.93-41.39-25.85-58.4a4.93,4.93,0,0,0-7.35-1.08c-7.08,6.14-14.47,14.72-22.39,25.67-27.43,37.91-50.76,5.54-33.16-15.52C847,741.67,860.2,732.5,873.17,727a4.91,4.91,0,0,0,1.36-8.11A88.88,88.88,0,0,0,856,705.68c-14.47-7.55-27.32-9.71-38.52-8.58-1.9.19-17.84-1.76-43.11,24.52a66.84,66.84,0,0,0-13,19.09C847,849.27,874.52,969.15,874.52,969.15Zm-19-171c4.82-3.46,10.8-4.62,15-.84,3.53,3.19,3.8,8.28,1.33,13a36.6,36.6,0,0,1-6.61,8.32,10.37,10.37,0,0,1-13.56.5C847.83,816.06,842.77,807.23,855.47,798.12Zm-41.22-77.5c7.24,2,8.76,9.37,6.65,14.17-5.71,13-17.71,15.49-23.67,10.69C778.65,730.5,808.93,719.16,814.25,720.62ZM850,845c-8.17,5-16.41-7.38-8.25-12.39S858.15,840,850,845Zm-51-72.5c-1.51-4.48.08-10.33,5.64-9.76,7.5.77,9.22,13.71,1,14.62C802.3,777.7,800,775.37,799,772.47Zm64.35,116.66c.46-9.39,14-15,20.9-8.72a8.16,8.16,0,0,1,1.79,9.06c-1.21,2.59-4,4.5-6.27,6.1-5.41,3.87-16.58,2-16.43-6.13C863.38,889.34,863.38,889.24,863.39,889.13Z" transform="translate(-111.51 -31.19)"/><ellipse class="cls-34" cx="783.26" cy="648.85" rx="120.94" ry="217.98" transform="translate(-345.35 616.7) rotate(-39.58)"/><path class="cls-35" d="M718.11,643.06a4.91,4.91,0,0,0,7.15,1.5c11.88-8.71,34.49-22.26,52.55-18.87,15.63,2.93,23.83,33.64-13.61,29.15-12.18-1.46-21.94-.36-29.43,2.57a4.94,4.94,0,0,0-2.19,7.54,207.5,207.5,0,0,0,35.87,37.89,4.91,4.91,0,0,0,6.8-.6c1.07-1.24,2.24-2.52,3.53-3.82,3.9-3.95,19.45-16.79,31.87-14.4,11.38,2.19,18.15,24-7.94,23.42a38.88,38.88,0,0,0-11,1.21,4.92,4.92,0,0,0-1,9.11c18.37,9.89,37.78,14.4,56.89,11,0,0,7.75-122.88-64.48-247.91a73.67,73.67,0,0,0-22.77-3.76c-21.78-.24-37.75,5.93-47.49,14.33-8.53,7.34-15.83,18.12-20.34,33.81a89.17,89.17,0,0,0-3.24,22.49,4.91,4.91,0,0,0,6.81,4.61c13-5.57,28.68-8.78,47.47-7.56,27.39,1.77,34.74,41-11.62,34.71-13.39-1.81-24.71-2.37-34-1.48a4.91,4.91,0,0,0-4.29,6.06C698.43,603.71,706.94,624,718.11,643.06Zm103.18,18.6c-9.62,3.48-17.07-10.8-7.34-14.32S831,658.14,821.29,661.66Zm-3.1-22.72c-2.3-4.78,4.67-9.35,7-4.53S820.5,643.76,818.19,638.94Zm-54.46-113.3c.06-5.25,5.51-8.26,10.29-7.35a16.39,16.39,0,0,1,8.46,5.13,19.48,19.48,0,0,1,4.36,6.6c2.19,5.89-.6,13.33-7.94,11.17a25.93,25.93,0,0,1-13.71-10.52A9.81,9.81,0,0,1,763.73,525.64Zm-17.35-7a6.34,6.34,0,0,1-7.49-2.54,5.58,5.58,0,0,1,.3-5.81,10.51,10.51,0,0,1,6.19-3.65,7.38,7.38,0,0,1,6.15,1.31c2.51,2.08,2.49,4.2,1.33,6C751.51,516.09,748.62,517.82,746.38,518.62Zm33.39,64.87c11-5.57,24.44,1.23,28.52,7.13,2.35,3.4,2.57,7.24,0,10.43-6.46,8.14-20.83,7.06-29,2.55C771.58,599.31,770.39,588.25,779.77,583.49Z" transform="translate(-111.51 -31.19)"/><path class="cls-36" d="M847.62,728.77c23.8-2.95,54.85-26.82,64.22-47.54a5,5,0,0,0-6-6.93,39.58,39.58,0,0,0-9.71,5.26c-21.13,15.31-28-6.47-19.85-14.74,8.85-9,29-7.33,34.4-6.3q2.7.51,5.07,1.14a4.92,4.92,0,0,0,5.94-3.39,206.94,206.94,0,0,0,7.93-51.56,4.94,4.94,0,0,0-6.09-5c-7.83,1.85-16.48,6.51-25.66,14.64-28.23,25-39-4.92-27.78-16.23C883,585.1,909.29,583.37,924,583.78a4.93,4.93,0,0,0,5-5.31c-1.65-22-6.22-43.56-13.46-62.43a4.91,4.91,0,0,0-7-2.54c-8.18,4.57-17.16,11.47-27.14,20.58-34.56,31.54-50.82-4.88-29.31-21.93,14.76-11.7,29.51-18,43.33-20.79a4.91,4.91,0,0,0,3-7.67A88.62,88.62,0,0,0,883,467c-12.64-10.33-24.77-15.06-36-16.23-1.9-.2-17.11-5.35-47.2,15.25a66.87,66.87,0,0,0-16.59,16.05C845,605.8,847.62,728.77,847.62,728.77Zm16.09-171.33c5.43-2.4,11.52-2.33,14.84,2.22,2.81,3.84,2,8.88-1.33,13a37.05,37.05,0,0,1-8.17,6.8,10.36,10.36,0,0,1-13.38-2.26C852.59,573.46,849.43,563.78,863.71,557.44ZM839.1,473.18c6.68,3.42,6.68,11,3.63,15.23-8.24,11.58-20.49,11.57-25.34,5.66C802.24,475.63,834.19,470.67,839.1,473.18Zm9.73,129c-9,3.26-14.56-10.56-5.56-13.81S857.84,599,848.83,602.2Zm-35.16-81.34c-.57-4.69,2.18-10.1,7.51-8.41,7.19,2.27,6.24,15.3-2,14.51C815.81,526.64,814,523.9,813.67,520.86ZM853,648.16c2.36-9.1,16.74-11.81,22.24-4.29a8.18,8.18,0,0,1-.09,9.24c-1.71,2.29-4.86,3.58-7.38,4.69-6.08,2.69-16.64-1.4-14.84-9.34C852.93,648.36,853,648.26,853,648.16Z" transform="translate(-111.51 -31.19)"/><ellipse class="cls-37" cx="608.08" cy="396.15" rx="188.69" ry="104.7" transform="translate(-212.18 208.84) rotate(-20.66)"/><path class="cls-38" d="M689.47,378.83a5.24,5.24,0,0,0,.57-7.89c-7.07-7.06-16.77-14.25-29-21.83-42.42-26.23-9.81-53.54,13.94-36.46,16.3,11.72,27.07,25,34,38.37a5.23,5.23,0,0,0,8.73.82,95,95,0,0,0,12.57-20.71c6.91-16,8.19-29.8,6.14-41.62C734,276,725.06,260.1,707,245.56a78.55,78.55,0,0,0-21.3-12.33c-144.15,54-221,160.49-221,160.49,13.44,15.73,32.48,25.15,54.3,29.46a5.26,5.26,0,0,0,5.35-8.19,41.82,41.82,0,0,0-8.22-8.43c-21.87-17.2-1.53-30.56,9.32-24.66,11.84,6.44,16,27.55,16.49,33.44.18,2,.28,3.79.32,5.54a5.24,5.24,0,0,0,5.2,5.1,221.07,221.07,0,0,0,55.19-6.91,5.27,5.27,0,0,0,3.3-7.7c-4.18-7.49-11.47-15-22.49-22-33.87-21.65-6.32-41.4,8.54-33.23,17.16,9.44,26.6,35.91,30.49,51.13a5.25,5.25,0,0,0,6.9,3.61C651.45,402.74,672.23,391.76,689.47,378.83ZM547.55,349.46c5.63,9.48-10.17,16.2-15.74,6.82S542,340.08,547.55,349.46Zm-.48-18.25c5.17-2.4,7.8,6.08,2.68,8.46S542,333.59,547.07,331.21ZM666.71,286.4c-5.38,2-13.18,1.62-18.41-.61-7.51-3.2-4.77-11.22,1-14.59a21,21,0,0,1,8.06-2.48c3.54-.42,7.3-.2,10.44,1.51,4.56,2.48,7,8.65,3.5,13A10.39,10.39,0,0,1,666.71,286.4ZM688.18,281c.29-2.29,1.71-4.05,5.18-4.06a7.85,7.85,0,0,1,5.95,3.08,11.19,11.19,0,0,1,2.63,7.2,6,6,0,0,1-3.69,5c-2.87,1.13-6.35-.4-7.89-3C689.06,287,687.85,283.66,688.18,281Zm-82.5,55.89c-9.78-1.81-22.35-10.65-22.15-21.73.07-4.34,2.85-7.35,7.09-8.56,7.36-2.1,23,1.39,28.31,13.44C623.44,330.3,615,338.6,605.68,336.88Z" transform="translate(-111.51 -31.19)"/><path class="cls-39" d="M684.71,234.17a71.06,71.06,0,0,0-2.79-24.45c-10.83-37.34-26.85-43.39-28.55-44.52-10-6.61-23.2-10.94-40.6-11a94.35,94.35,0,0,0-24,3.25,5.22,5.22,0,0,0-2.74,8.32c9.49,11.67,17.37,26.85,21.61,46.47,6.17,28.61-31.9,47.59-39-1.78-2-14.27-4.77-26-8.41-35.34a5.23,5.23,0,0,0-7.46-2.62c-18.74,10.64-37.11,25.29-53.36,42.3a5.25,5.25,0,0,0,.56,7.78c12.4,9.64,32.89,28.87,34.68,48.37,1.55,16.89-27.55,34.25-33.87-5.45-2-12.91-6-22.6-11.21-29.43a5.28,5.28,0,0,0-8.38,0,221.12,221.12,0,0,0-28.39,47.83,5.25,5.25,0,0,0,2.6,6.81q2.39,1.1,4.95,2.5c5.18,2.84,22.89,15.05,24.06,28.48,1.08,12.3-19.3,25.61-26.33-1.31a41.59,41.59,0,0,0-4.44-10.9c-2.45-4.1-8.4-3-9.64,1.63-6.32,23.41,3.08,64.09,20.69,82.64C464.68,393.72,550.08,294.21,684.71,234.17Zm-124,29.29a11,11,0,0,1-12.55-7.19A39.65,39.65,0,0,1,546,245.14c0-5.7,2.8-10.38,7.72-11.64,5.81-1.49,10.88,2.57,13.72,8.23C574.92,256.62,565.76,262.45,560.68,263.46Zm87.83-42.54c-8,1.58-18.09-6.71-17-21.83.39-5.58,5.48-11.79,13.3-10.08C650.52,190.27,673.48,216,648.51,220.92Zm-85.19,60.14c5.22,8.78-8.71,16.4-13.93,7.61S558.1,272.27,563.32,281.06Zm61.45-34.26c-7.32-5,.71-16.31,8.17-13.32,5.53,2.22,4.14,8.53.49,12C631.07,247.74,627.76,248.81,624.77,246.8ZM514.71,324c-3.9,7.76-15.36,4-18.55-2.36-1.32-2.62-3-5.82-2.9-8.86a8.69,8.69,0,0,1,6.19-7.66c9.61-2.47,19.62,9.5,15.4,18.59C514.8,323.81,514.76,323.91,514.71,324Z" transform="translate(-111.51 -31.19)"/><ellipse class="cls-40" cx="882.75" cy="466.46" rx="129.24" ry="232.93" transform="translate(-206.32 638.27) rotate(-39.58)"/><path class="cls-41" d="M978.61,512c-29.76-14.33-73-27.06-113.86-34.73C775.64,460.54,718,398.13,733.13,339.53c10.07-39,38.44-61.64,77.45-62.8C907.21,328.43,966,462.39,978.61,512Z" transform="translate(-111.51 -31.19)"/><path class="cls-42" d="M978.61,512C975.38,467.22,984,455.65,989,392.87c5.84-74.52-37-159.62-102.34-167.63-35.05-4.3-69.29,19.35-76,51.49C900,352.08,961.54,463.72,978.61,512Z" transform="translate(-111.51 -31.19)"/><path class="cls-27" d="M890.39,326.2c5.8.57,11.62.67,17.38.71s11.49-.14,17.16,0a90.39,90.39,0,0,1,16.74,1.65,47.14,47.14,0,0,1,15.46,6.1,54.41,54.41,0,0,1,12.59,11.4,46.45,46.45,0,0,0-11.35-13.16,45.58,45.58,0,0,0-15.9-7.65c-11.51-3.1-23.31-2.59-34.7-2.69-11.42.06-22.77-.31-33.74-2.89a83,83,0,0,1-25.12-10.55q-5.53-5.21-11.18-10.28-7.59-6.56-15.3-12.94a16.86,16.86,0,0,0,4.54,1.36,37.08,37.08,0,0,0,8.61.27A131.18,131.18,0,0,0,852.43,285c11.08-2.25,22-4.94,33-6.64a133.69,133.69,0,0,1,16.52-1.71,87.87,87.87,0,0,1,16.46.74A58.22,58.22,0,0,1,948.16,291a49.67,49.67,0,0,0-13-10.94A54.36,54.36,0,0,0,919,274c-11.36-2.36-23-1.7-34.27,0s-22.21,4.74-33.06,7.65c-5.43,1.4-10.84,2.85-16.32,3.75a38.72,38.72,0,0,1-8.24.64,15.67,15.67,0,0,1-6-1.27q-5.21-4.27-10.5-8.42l10,9.23a18.69,18.69,0,0,1,.59,8.37,44.65,44.65,0,0,1-2.26,9.2c-2,6-4.59,11.89-7.15,17.76-5.21,11.72-10.47,23.55-14.56,35.89s-6.84,25.32-6.55,38.48a67.83,67.83,0,0,0,3.15,19.35A64.76,64.76,0,0,0,802.49,432a73.75,73.75,0,0,1-8.42-36.71,106.89,106.89,0,0,1,2.31-18.76,151.45,151.45,0,0,1,5-18.36c3.92-12.11,8.95-23.91,13.55-36A155.15,155.15,0,0,0,821,303.74a45.28,45.28,0,0,0,1.37-9.7,23.81,23.81,0,0,0-.8-7.59c5.19,4.79,9.72,9,14.76,13.94,2.82,2.83,5.67,5.62,8.49,8.44A111.15,111.15,0,0,1,850.41,322a108.47,108.47,0,0,1,5.06,19.63c2.15,13.36,1.12,26.92-1,40.38-1,6.76-2.16,13.54-2.86,20.48a70.16,70.16,0,0,0,.64,21,45.91,45.91,0,0,0,8.68,19.14,70.81,70.81,0,0,0,15,14.27c-5-4.75-9.72-9.74-13.27-15.48a46.47,46.47,0,0,1-7.09-18.53,72.45,72.45,0,0,1,.12-20c.8-6.72,2-13.46,3.07-20.28a166.32,166.32,0,0,0,1.9-20.75A95.41,95.41,0,0,0,858.81,341c-1.38-6.86-5.6-20.28-10.11-28.23l6.1,6.32c2,2.12,4,4.31,5.94,6.46Q876.57,343,890.82,361.7a79.32,79.32,0,0,1,4.31,20.82c.81,10.14.7,20.46,1.59,30.86a124.4,124.4,0,0,0,2.34,15.53,84,84,0,0,0,4.87,15,77.25,77.25,0,0,0,7.65,13.72,85.63,85.63,0,0,0,10.15,11.81,141.65,141.65,0,0,1-8.34-12.95,94.5,94.5,0,0,1-6.3-13.83,114.37,114.37,0,0,1-6-29.67c-1-10.14-1-20.5-2.56-30.86a71.87,71.87,0,0,0-3.85-15.36q5,6.74,9.8,13.6c13.44,19.14,25.69,39.1,37.36,59.41l8.6,15.33,8.27,15.52,4.17,7.75,4,7.85q3.95,7.86,8,15.68c-9.18-21.61-18.79-43.11-30.05-63.78A602.18,602.18,0,0,0,908,377.87c-2.21-3.14-4.47-6.25-6.75-9.35A70.74,70.74,0,0,0,914.8,377c7.88,4,16.09,6.84,23.49,10.91a65.79,65.79,0,0,1,19.41,15.91c5.47,6.53,9.78,14,14.24,21.53-2.79-8.25-6.34-16.39-11.55-23.63-1.34-1.77-2.79-3.48-4.21-5.2s-3.18-3.16-4.77-4.75-3.54-2.77-5.31-4.16c-1.89-1.19-3.77-2.43-5.72-3.52-7.9-4.24-16.24-6.94-24.17-10.18a96,96,0,0,1-17.9-9.43,440.83,440.83,0,0,0-35.1-41.25c-2.94-3.12-6-6.14-9.05-9.13a68.65,68.65,0,0,0,19,8.8A92.86,92.86,0,0,0,890.39,326.2Z" transform="translate(-111.51 -31.19)"/><path class="cls-43" d="M806.92,303.64c-18.8-16.9-47.84-35.51-76.2-49.89-61.88-31.36-90.86-89.55-67.19-129.35,15.75-26.48,41.43-37,70.33-29.55C793.77,153.52,808.28,264.5,806.92,303.64Z" transform="translate(-111.51 -31.19)"/><path class="cls-44" d="M806.92,303.64c7.21-33.59,16-40.23,33.09-85.29,20.24-53.48,7-125.17-39.28-145-24.82-10.66-55-.62-66.87,21.54C783.43,169.35,804.71,264.52,806.92,303.64Z" transform="translate(-111.51 -31.19)"/><path class="cls-27" d="M781.89,148.28c4.15,1.66,8.39,3,12.62,4.25s8.46,2.35,12.6,3.66a67.55,67.55,0,0,1,11.94,4.8,35.75,35.75,0,0,1,10.06,7.79,41.47,41.47,0,0,1,6.8,11.06,35.42,35.42,0,0,0-5.52-12.09,34.51,34.51,0,0,0-10-9c-7.79-4.74-16.56-6.9-24.91-9.41s-16.65-5.1-24.16-9.35a63.33,63.33,0,0,1-16.19-13.13q-3-5-6-9.94-4.17-6.44-8.48-12.78a13.15,13.15,0,0,0,3,2,28.58,28.58,0,0,0,6.27,2,99.86,99.86,0,0,0,12.92,1.72c8.62.72,17.2,1.08,25.64,2.18a104.55,104.55,0,0,1,12.5,2.28,67.12,67.12,0,0,1,11.93,4.07,44.55,44.55,0,0,1,19,16.43A38.16,38.16,0,0,0,824.63,124a41.62,41.62,0,0,0-10.55-7.93c-7.84-4.16-16.55-6.18-25.18-7.33s-17.33-1.27-25.91-1.46c-4.3-.13-8.58-.22-12.79-.74a29.45,29.45,0,0,1-6.2-1.29,12,12,0,0,1-4.16-2.23c-1.94-2.83-3.9-5.65-5.91-8.43q2.7,4.47,5.39,8.93a14.4,14.4,0,0,1-1.36,6.27,34.26,34.26,0,0,1-3.63,6.28c-2.76,4-5.92,7.74-9.05,11.51-6.34,7.49-28.83,40.38-31.43,50.11A51.68,51.68,0,0,0,692,192.56a49.37,49.37,0,0,0,2.66,14.61,56.51,56.51,0,0,1,1.67-28.77,82.32,82.32,0,0,1,5.72-13.28,118.07,118.07,0,0,1,7.58-12.42c5.48-8.06,11.7-15.64,17.66-23.51a119.69,119.69,0,0,0,8.4-12.27,35.26,35.26,0,0,0,3.08-6.83,18.24,18.24,0,0,0,1-5.75c2.79,4.63,5.21,8.7,7.86,13.4,1.47,2.68,3,5.34,4.43,8a85.09,85.09,0,0,1,1.32,10.87,83.61,83.61,0,0,1-.49,15.51c-1.28,10.27-4.94,20-9.38,29.44-2.15,4.76-4.48,9.49-6.49,14.43a53.78,53.78,0,0,0-4,15.59,35.14,35.14,0,0,0,2.28,15.92,54.13,54.13,0,0,0,8,13.7A61.44,61.44,0,0,1,736.87,227a35.64,35.64,0,0,1-1.24-15.13A55.66,55.66,0,0,1,740,197.22c2-4.77,4.37-9.46,6.6-14.25a127.93,127.93,0,0,0,5.84-14.83,73.91,73.91,0,0,0,3.09-15.72c.45-5.34.22-16.09-1.39-22.9l3.13,5.95c1,2,2,4,3,6q7.92,16.17,14.37,33a60.55,60.55,0,0,1-1.29,16.22c-1.57,7.62-3.87,15.17-5.44,23a96.58,96.58,0,0,0-1.61,11.91,65.66,65.66,0,0,0,.36,12.06,59.76,59.76,0,0,0,2.69,11.71,65.21,65.21,0,0,0,4.93,10.85,107.05,107.05,0,0,1-3.35-11.29,71.57,71.57,0,0,1-1.67-11.52,87.51,87.51,0,0,1,1.92-23.07c1.47-7.66,3.64-15.28,4.73-23.22a54.44,54.44,0,0,0,.46-12.11q2.24,6,4.29,12.09c5.78,16.94,10.5,34.22,14.72,51.64l3,13.09L801.14,269l1.4,6.59,1.24,6.62q1.2,6.62,2.53,13.23c-2.11-17.84-4.57-35.68-8.41-53.27A461.84,461.84,0,0,0,783.79,190c-.95-2.78-1.94-5.55-2.95-8.31a54.22,54.22,0,0,0,8.1,9.15c4.94,4.6,10.35,8.47,14.91,13a50.36,50.36,0,0,1,10.86,15.84c2.62,6,4.18,12.39,5.85,18.87a67.87,67.87,0,0,0-3.43-19.83c-.6-1.59-1.3-3.16-2-4.73s-1.66-3-2.48-4.5-2-2.8-3-4.2-2.25-2.59-3.45-3.81c-4.9-4.8-10.44-8.57-15.57-12.65a73,73,0,0,1-11.13-10.76,337.63,337.63,0,0,0-17-37.81c-1.49-2.92-3.08-5.79-4.69-8.64a52.84,52.84,0,0,0,12.06,10.53A71.54,71.54,0,0,0,781.89,148.28Z" transform="translate(-111.51 -31.19)"/><ellipse class="cls-45" cx="492.76" cy="832.99" rx="173.44" ry="96.23" transform="translate(-580.77 907.62) rotate(-65.67)"/><path class="cls-46" d="M496.24,868c21.72-12.93,53.82-25.55,84.43-34.15,66.78-18.76,106.51-70.21,91-113.85-10.31-29-33.46-44.38-63.26-42.64C538.27,723.29,502.5,829.35,496.24,868Z" transform="translate(-111.51 -31.19)"/><path class="cls-47" d="M496.24,868c-.56-34.35-7.93-42.58-15.91-90.1-9.48-56.39,17.46-124.14,66.68-134.65,26.42-5.64,54.11,10.07,61.42,34.11C545.34,740.83,506,830.06,496.24,868Z" transform="translate(-111.51 -31.19)"/><path class="cls-27" d="M550.94,720.46c-4.39.82-8.81,1.29-13.2,1.71s-8.76.67-13.07,1.15A68.43,68.43,0,0,0,512,725.71a36,36,0,0,0-11.38,5.69,42,42,0,0,0-8.82,9.53,35.55,35.55,0,0,1,7.77-10.79,34.84,34.84,0,0,1,11.6-6.9c8.56-3.14,17.58-3.55,26.26-4.39s17.33-1.77,25.51-4.48a63.56,63.56,0,0,0,18.44-9.74q3.87-4.33,7.82-8.58,5.34-5.52,10.8-10.9a13,13,0,0,1-3.38,1.35,29,29,0,0,1-6.54.79,100.71,100.71,0,0,1-13-.82c-8.59-1-17.07-2.29-25.57-2.84a103.61,103.61,0,0,0-12.7-.19,67.24,67.24,0,0,0-12.5,1.68,44.57,44.57,0,0,0-21.77,12.43,38,38,0,0,1,9.19-9.22,41.75,41.75,0,0,1,11.89-5.73c8.5-2.56,17.44-2.84,26.12-2.3a256.89,256.89,0,0,1,25.71,3.6c4.23.7,8.45,1.44,12.69,1.76a29.65,29.65,0,0,0,6.32-.07,11.88,11.88,0,0,0,4.52-1.38q3.67-3.6,7.43-7.12l-7,7.71a14.34,14.34,0,0,0,.12,6.42,34.5,34.5,0,0,0,2.34,6.86c1.93,4.46,4.3,8.75,6.65,13,4.76,8.58,9.57,17.24,13.52,26.37s6.92,18.83,7.58,28.88a51.89,51.89,0,0,1-1.09,15,49.91,49.91,0,0,1-5.44,13.81A56.46,56.46,0,0,0,629,766.61a81.68,81.68,0,0,0-3-14.14,118.26,118.26,0,0,0-5-13.65c-3.81-9-8.44-17.62-12.76-26.49a121.66,121.66,0,0,1-5.86-13.67,35,35,0,0,1-1.69-7.3,18.05,18.05,0,0,1,.1-5.84c-3.63,4-6.8,7.52-10.31,11.62-2,2.34-3.95,4.66-5.9,7a84.53,84.53,0,0,0-3.41,10.42,83.38,83.38,0,0,0-2.53,15.3c-.73,10.33,1,20.59,3.49,30.71,1.19,5.08,2.56,10.17,3.56,15.41a53.74,53.74,0,0,1,.93,16.08,35.37,35.37,0,0,1-5.32,15.18,54.44,54.44,0,0,1-10.49,11.88,61.82,61.82,0,0,0,9.07-12.69A35.66,35.66,0,0,0,584,791.82a55.83,55.83,0,0,0-1.44-15.23c-1.07-5.06-2.45-10.12-3.71-15.25A128,128,0,0,1,576,745.66a73.43,73.43,0,0,1,0-16c.6-5.31,2.91-15.82,5.8-22.18l-4.21,5.22c-1.39,1.75-2.73,3.55-4.09,5.32q-10.9,14.32-20.5,29.55a61.12,61.12,0,0,0-1.88,16.16c.07,7.78.85,15.64.88,23.62a96.64,96.64,0,0,1-.74,12,64.06,64.06,0,0,1-2.7,11.76,59.31,59.31,0,0,1-4.9,11,65.68,65.68,0,0,1-6.95,9.69,108.27,108.27,0,0,0,5.49-10.43,73.7,73.7,0,0,0,3.87-11,87.61,87.61,0,0,0,2.59-23c0-7.79-.6-15.69-.13-23.69a54.7,54.7,0,0,1,1.89-12q-3.34,5.46-6.55,11c-9,15.49-16.94,31.53-24.46,47.8l-5.53,12.26-5.25,12.38L506,841.32l-2.5,6.25q-2.48,6.25-5.06,12.49C504,843,509.84,825.94,517,809.43A462.08,462.08,0,0,1,541,761q2.21-3.81,4.51-7.57a53.85,53.85,0,0,1-9.73,7.4c-5.73,3.55-11.8,6.3-17.16,9.9a50.23,50.23,0,0,0-13.72,13.43c-3.73,5.35-6.51,11.34-9.4,17.37a67.88,67.88,0,0,1,7.21-18.78c.9-1.45,1.89-2.85,2.86-4.25s2.21-2.63,3.31-3.94,2.51-2.35,3.76-3.53,2.72-2.11,4.13-3.07c5.74-3.77,11.91-6.39,17.73-9.39a73.62,73.62,0,0,0,13-8.39,334.61,334.61,0,0,1,24-33.81c2-2.57,4.14-5.08,6.28-7.57a52.37,52.37,0,0,1-13.88,8A70.83,70.83,0,0,1,550.94,720.46Z" transform="translate(-111.51 -31.19)"/><path class="cls-48" d="M767.76,1016a4.38,4.38,0,0,0-2.17-6.24c-7.75-3.06-17.56-5.37-29.45-7.13-41.18-6.09-25.21-37.79-1.37-32.55,16.37,3.6,29,10.23,38.71,18.19a4.37,4.37,0,0,0,7-2.26,79.38,79.38,0,0,0,2.79-20c0-14.53-3.57-25.54-9-33.93-6.26-9.58-18.38-18.8-37.06-24a65.17,65.17,0,0,0-20.39-2.41c-92.61,89-116.33,196-116.33,196,15.5,7.62,33.21,8.55,51.35,4.64a4.39,4.39,0,0,0,1.39-8,34.68,34.68,0,0,0-9.08-3.73c-22.44-6-11.27-22.92-1-22,11.21,1,21.33,15.84,23.69,20.17q1.17,2.14,2.07,4.14a4.38,4.38,0,0,0,5.67,2.19,184.22,184.22,0,0,0,40-23.53,4.4,4.4,0,0,0,0-7c-5.67-4.35-13.75-7.7-24.51-9.46-33.12-5.4-18.52-29.63-4.44-28.28,16.27,1.57,32.25,18.73,40.25,29.11a4.39,4.39,0,0,0,6.49.49A198.34,198.34,0,0,0,767.76,1016ZM649.3,1040.37c7.45,5.41-2.44,15.77-9.81,10.42S641.94,1035,649.3,1040.37Zm-6.4-13.83c3.17-3.55,8,2.08,4.86,5.6S639.76,1030.06,642.9,1026.54Zm76.88-73.86a23,23,0,0,1-14.31,5.61c-6.81,0-7.36-7-4-11.51a17.28,17.28,0,0,1,5.35-4.56,14.62,14.62,0,0,1,8.5-2.3c4.32.4,8.23,4.32,7,8.82A8.56,8.56,0,0,1,719.78,952.68Zm14.67-11.24c-.54-1.85,0-3.66,2.63-4.82a6.56,6.56,0,0,1,5.58.39,9.3,9.3,0,0,1,4.39,4.66,5,5,0,0,1-1.18,5,5.65,5.65,0,0,1-7,.32A12.13,12.13,0,0,1,734.45,941.44Zm-44.76,70.08c-8.09,1.85-20.64-.77-24.16-9.33-1.37-3.35-.23-6.58,2.61-8.9,5-4,18.1-6.54,26.14.94C701.13,1000.61,697.37,1009.77,689.69,1011.52Z" transform="translate(-111.51 -31.19)"/><path class="cls-49" d="M716.32,906.71a59.47,59.47,0,0,0-10.21-17.82c-20.64-25-34.91-24.38-36.58-24.68-9.86-1.76-21.4-.72-34.75,5a79.31,79.31,0,0,0-17.33,10.42,4.36,4.36,0,0,0,.65,7.28c11.13,5.81,22.18,14.84,31.91,28.48,14.18,19.88-8.72,47-30.47,11.51-6.28-10.25-12.25-18.37-18.11-24.3a4.37,4.37,0,0,0-6.59.46c-10.85,14.34-20.08,31.64-26.92,50a4.38,4.38,0,0,0,3,5.77c12.68,3.29,34.74,11.27,42.56,25.62,6.76,12.42-9.8,35.35-27.76,7-5.84-9.22-12.08-15.33-18.31-18.84a4.4,4.4,0,0,0-6.44,2.72,184.51,184.51,0,0,0-6,46,4.38,4.38,0,0,0,4.24,4.36c1.46,0,3,.13,4.62.28,4.91.47,22.51,4,27.85,13.88,4.89,9.07-6.33,26-20.61,7.69a34.86,34.86,0,0,0-7-6.89,4.4,4.4,0,0,0-6.85,4.44c2.89,20,23.54,48.09,43.15,56.49C600.41,1101.66,633,997.19,716.32,906.71ZM631,970.13a9.22,9.22,0,0,1-12-1.37,32.93,32.93,0,0,1-5.3-7.83c-1.86-4.37-1.28-8.87,2.07-11.46,4-3.06,9.19-1.63,13.23,1.77C639.6,960.18,634.51,967.68,631,970.13Zm53.26-61.62c-5.61,3.85-16.09.83-20.27-11.1-1.55-4.4.3-10.84,6.86-12.12C675.62,884.36,701.71,896.49,684.21,908.51Zm-45.42,74.23c6.9,5-1.26,15.45-8.16,10.44S631.89,977.73,638.79,982.74Zm35.78-46.56c-7.25-1.36-4.85-12.73,1.86-12.9,5-.12,6,5.17,4.34,9C679.7,934.83,677.51,936.74,674.57,936.18Zm-58.85,95.53c-.42,7.23-10.45,8.12-15,4.32-1.88-1.58-4.25-3.46-5.15-5.84a7.27,7.27,0,0,1,2.21-7.91c6.55-5.07,18.18.79,18,9.16C615.73,1031.53,615.73,1031.62,615.72,1031.71Z" transform="translate(-111.51 -31.19)"/><ellipse class="cls-50" cx="618.8" cy="995" rx="134.42" ry="74.58" transform="translate(-422.78 251.13) rotate(-20.66)"/><ellipse class="cls-51" cx="568.21" cy="851.78" rx="134.42" ry="74.58" transform="translate(-375.5 224.07) rotate(-20.66)"/><path class="cls-52" d="M501.06,995c23-4.16,54.86-4.71,84.15-2.24,63.89,5.37,114.94-26.33,115.65-69.12.47-28.48-14.6-49.25-41-57.39C584.28,883.31,519,963.55,501.06,995Z" transform="translate(-111.51 -31.19)"/><path class="cls-53" d="M501.06,995c10.63-29.92,6.91-39.43,15.38-83.16,10-51.89,55.29-101.83,101.3-95,24.7,3.67,43.6,26.23,42.14,49.41C584.73,900.78,521.78,965.3,501.06,995Z" transform="translate(-111.51 -31.19)"/><path class="cls-27" d="M596.17,885c-4.07-.7-8-1.73-12-2.78s-7.8-2.26-11.69-3.24a63.2,63.2,0,0,0-11.72-2,33,33,0,0,0-11.69,1.24,38.38,38.38,0,0,0-10.73,5.4,32.83,32.83,0,0,1,10.22-6.83,32.16,32.16,0,0,1,12.28-2.22c8.42,0,16.37,2.62,24.15,4.69s15.58,4.08,23.55,4.38a58.72,58.72,0,0,0,19.11-2.46q4.76-2.5,9.55-4.91c4.27-2,8.56-4,12.87-5.93a12.53,12.53,0,0,1-3.35.07,26.53,26.53,0,0,1-5.92-1.44,93.82,93.82,0,0,1-11-4.91c-7.13-3.62-14-7.51-21.22-10.74A95.32,95.32,0,0,0,597.64,849a62.69,62.69,0,0,0-11.36-2.59,41.17,41.17,0,0,0-22.88,3.72,35.14,35.14,0,0,1,11-5A38.46,38.46,0,0,1,586.49,844c8.19.53,16,3.18,23.36,6.46A237.52,237.52,0,0,1,631,861.88c3.44,2,6.85,4,10.42,5.62a26.77,26.77,0,0,0,5.49,2,11.24,11.24,0,0,0,4.36.26c2.9-1.28,5.81-2.55,8.74-3.76l-8.57,4.4a13.31,13.31,0,0,0-2,5.6,31.89,31.89,0,0,0-.19,6.7c.23,4.49.89,9,1.53,13.45,1.35,9,2.71,18,3.17,27.21s-.1,18.54-2.78,27.46a48.14,48.14,0,0,1-5.78,12.6,45.88,45.88,0,0,1-9.19,10.2,52.25,52.25,0,0,0,12.65-23.44,75.56,75.56,0,0,0,2-13.23,109.71,109.71,0,0,0,.06-13.45c-.39-9-1.6-18-2.47-27.06a110.08,110.08,0,0,1-.65-13.73,32.58,32.58,0,0,1,.89-6.87,16.89,16.89,0,0,1,2-5c-4.44,2.28-8.32,4.31-12.69,6.72-2.45,1.4-4.92,2.76-7.37,4.16A80.49,80.49,0,0,0,617.06,902c-4,8.7-5.83,18.14-6.91,27.71-.62,4.79-1.08,9.64-1.9,14.5a50.17,50.17,0,0,1-4.4,14.23,32.62,32.62,0,0,1-9.52,11.41,50.05,50.05,0,0,1-12.93,6.9,57.15,57.15,0,0,0,12-8.06,32.86,32.86,0,0,0,8.32-11.3,51.3,51.3,0,0,0,3.68-13.65c.72-4.73,1.15-9.55,1.73-14.4a117.11,117.11,0,0,1,2.6-14.51A67.34,67.34,0,0,1,614.9,901c2.23-4.42,7.64-12.77,12.2-17.34l-5.34,3.16c-1.77,1.07-3.51,2.19-5.26,3.29q-14.07,8.86-27.31,19a56.24,56.24,0,0,0-6.86,13.38c-2.46,6.76-4.32,13.81-6.89,20.74a89,89,0,0,1-4.52,10.15,59.92,59.92,0,0,1-6.14,9.31,55,55,0,0,1-7.8,7.91,61.1,61.1,0,0,1-9.14,6.14,98.83,98.83,0,0,0,8.12-7.26,66,66,0,0,0,6.9-8.25,80.46,80.46,0,0,0,9.69-19.08c2.56-6.74,4.56-13.78,7.56-20.56a50.6,50.6,0,0,1,5.51-9.74q-4.68,3.63-9.24,7.42c-12.77,10.52-24.87,21.82-36.65,33.47L531,961.52l-8.55,9-4.3,4.5-4.19,4.6q-4.17,4.62-8.42,9.18C515.84,975.82,526.44,963,538,951a426.12,426.12,0,0,1,36.41-34.16c2.09-1.72,4.22-3.42,6.35-5.1A49.73,49.73,0,0,1,570,915c-6.12,1.22-12.26,1.64-18.07,3a46.6,46.6,0,0,0-16.22,7.19c-5,3.42-9.31,7.71-13.76,12a62.22,62.22,0,0,1,12.32-13.93c1.24-1,2.55-1.86,3.85-2.76s2.76-1.55,4.14-2.34,2.93-1.22,4.4-1.84c1.52-.45,3-.94,4.57-1.32,6.18-1.4,12.37-1.68,18.39-2.39a67.48,67.48,0,0,0,14-3.06,312.89,312.89,0,0,1,31.69-21.51c2.6-1.57,5.23-3.06,7.89-4.52a48.4,48.4,0,0,1-14.6,2.42A64.73,64.73,0,0,1,596.17,885Z" transform="translate(-111.51 -31.19)"/></g></g></svg>